<svg width="48" height="48" viewBox="0 0 48 48" fill="none" xmlns="http://www.w3.org/2000/svg">
  <rect width="48" height="48" rx="12" fill="#EFF2F8"/>
  <path d="M30.5 17.5C31.7 16.1 32.4 14.3 32.2 12.5C30.8 12.6 29.1 13.5 28 14.8C26.9 16 26.3 17.8 26.5 19.4C28 19.5 29.4 18.7 30.5 17.5Z" fill="#0E1A2B"/>
  <path d="M32 22.5C32 19.8 34.2 18.2 34.3 18.1C33.3 16.6 31.8 15.8 30.4 15.8C29 15.8 27.9 16.4 26.8 16.4C25.7 16.4 24.7 15.8 23.5 15.8C21.9 15.8 20.2 16.7 19.2 18.2C17.2 21.2 18.7 25.6 20.6 28C21.5 29.2 22.6 30.5 24 30.4C25.3 30.3 25.8 29.5 27.4 29.5C29 29.5 29.4 30.4 30.8 30.4C32.2 30.3 33.3 29.1 34.1 28C34.7 27.1 35.2 26.1 35.2 26.1C35.2 26.1 32.8 25 32 22.5Z" fill="#0E1A2B"/>
</svg>
